[b][u]9 (2009) DVDRip XviD{ExtraTorrent}-Dubby[/u][/b]
-------------------------------------------------------------------------------
[b]Movie Information[/b]
-------------------------------------------------------------------------------
Movie Title    : 9
IMDB Link      : http://www.imdb.com/title/tt0472033/
Genre          : Animation | Adventure | Drama | Fantasy | Sci-Fi 
IMDB Ratings   : 7.1/10   10,681 votes 
Director       : Shane Acker
Language       : English
Duriation      : 79 min

-------------------------------------------------------------------------------
[b]Main Cast[/b]
-------------------------------------------------------------------------------
Christopher Plummer... 	#1 (voice)

Martin Landau	   ... 	#2 (voice)

John C. Reilly	   ... 	#5 (voice)

Crispin Glover	   ... 	#6 (voice)

Jennifer Connelly  ... 	#7 (voice)
	
Fred Tatasciore	   ... 	#8 / Radio Announcer (voice)

Elijah Wood	   ... 	#9 (voice)
	 
Alan Oppenheimer   ... 	The Scientist (voice)

Tom Kane	   ... 	Dictator (voice)

Helen Wilson	   ... 	Newscaster (voice)
-------------------------------------------------------------------------------
[b]Plot[/b]
-------------------------------------------------------------------------------
A post-apocalyptic nightmare in which all of humanity is threatened.

-------------------------------------------------------------------------------
[b]General Release Information[/b]
-------------------------------------------------------------------------------
Release Title                    : 9 (2009) DVDRip XviD{ExtraTorrent}-Dubby
Source                           : 9.2009.NTSC.CUSTOM.SWESUB.DVDR-aTerFalleT
Format                           : AVI
Format/Info                      : Audio Video Interleave
File size                        : 704 MiB
Duration                         : 1h 19mn
Overall bit rate                 : 1 242 Kbps
Writing application              : VirtualDubMod 1.5.10.2 (build 2540/release)
Writing library                  : VirtualDubMod build 2540/release

-------------------------------------------------------------------------------
[b]Video Information[/b]
-------------------------------------------------------------------------------
ID                               : 0
Format                           : MPEG-4 Visual
Format profile                   : AdvancedSimple@L5
Format settings, BVOP            : Yes
Format settings, QPel            : No
Format settings, GMC             : No warppoints
Format settings, Matrix          : Default (H.263)
Muxing mode                      : Packed bitstream
Codec ID                         : XVID
Codec ID/Hint                    : XviD
Duration                         : 1h 19mn
Bit rate                         : 1 105 Kbps
Width                            : 640 pixels
Height                           : 352 pixels
Display aspect ratio             : 16:9
Frame rate                       : 23.976 fps
Resolution                       : 24 bits
Colorimetry                      : 4:2:0
Scan type                        : Progressive
Bits/(Pixel*Frame)               : 0.204
Stream size                      : 626 MiB (89%)
Writing library                  : XviD 1.2.1 (UTC 2008-12-04)

-------------------------------------------------------------------------------
[b]Audio Information[/b]
-------------------------------------------------------------------------------
ID                               : 1
Format                           : MPEG Audio
Format version                   : Version 1
Format profile                   : Layer 3
Format settings, Mode            : Joint stereo / MS Stereo
Codec ID                         : 55
Codec ID/Hint                    : MP3
Duration                         : 1h 19mn
Bit rate mode                    : Constant
Bit rate                         : 128 Kbps
Channel(s)                       : 2 channels
Sampling rate                    : 48.0 KHz
Resolution                       : 16 bits
Stream size                      : 72.5 MiB (10%)
Alignment                        : Aligned on interleaves
Interleave, duration             : 42 ms (1.00 video frame)
Interleave, preload duration     : 504 ms

-------------------------------------------------------------------------------
[b]Notes[/b]
-------------------------------------------------------------------------------
I am looking For PAL and NTSC DVDRs, Pre released R5s, dvd/screeners, direct/
line audio, and syncers. If you can offer me anything, pm me and we'll chat
on msn! i do not take requests very often....
this is burn tested using convert x to dvd enjoy.

-------------------------------------------------------------------------------
[b]Screenshots[/b]
-------------------------------------------------------------------------------
[img]http://lookpic.com/i/4/AMDy7gpv.png[/img]
[img]http://lookpic.com/i/88/N4nSDbvL.png[/img]
[img]http://lookpic.com/i/819/3YDzU5He.png[/img]
[img]http://lookpic.com/i/385/Gz9usXYS.png[/img]
[img]http://lookpic.com/i/525/SoMX0r4C.png[/img]


Quick Shouts: Wrath, BADASS, SaM, xxxObscenexxx and every other loyal member
of et thanks to you for seeding and sharing! Blazinseedboxes.com is a good place
to get a seedbox if you are interested!